<svg xmlns="http://www.w3.org/2000/svg" width="800" height="600" viewBox="0 0 800 600" style="max-width: 100%; height: auto; cursor: default;"><defs><pattern id="checkerboard" width="20" height="20" patternUnits="userSpaceOnUse"><rect width="10" height="10" fill="#e0e0e0"/><rect x="10" y="0" width="10" height="10" fill="#ffffff"/><rect x="0" y="10" width="10" height="10" fill="#ffffff"/><rect x="10" y="10" width="10" height="10" fill="#e0e0e0"/></pattern></defs><rect width="100%" height="100%" fill="url(#checkerboard)"/><rect width="100%" height="100%" fill="rgba(255, 255, 255, 1)"/><!----><foreignObject x="0" y="0" width="100%" height="100%" style="pointer-events: none;"><div xmlns="http://www.w3.org/1999/xhtml" style="width: 100%; height: 100%; display: flex; align-items: center; justify-content: center; gap: 9px; font-family: MiSans; font-weight: 400;"><span style="font-size: 101px; color: rgb(0, 0, 0); text-shadow: rgba(0, 0, 0, 0) 0px 0px 0px; line-height: 1; white-space: nowrap;">傻逼</span> <div style="width: 121px; height: 121px; display: flex; align-items: center; justify-content: center; background-color: transparent; backdrop-filter: none; border-radius: 0px;"><div style="max-width: 101px; max-height: 101px; flex-shrink: 0; color: rgb(0, 0, 0); filter: drop-shadow(rgba(0, 0, 0, 0) 0px 0px 0px); display: flex; align-items: center; justify-content: center; border-radius: 0%; overflow: hidden;"><div class="icon-svg-box svelte-oy8cb"><svg xmlns="http://www.w3.org/2000/svg" viewBox="0 0 15 15" width="100%" height="100%" preserveAspectRatio="xMidYMid meet"><path fill="currentColor" d="M2.503 1.907A7.47 7.47 0 0 1 7.5 0a7.5 7.5 0 0 1 6.635 4H7.5a3.5 3.5 0 0 0-3.23 2.149z"/><path fill="currentColor" d="M1.745 2.69a7.503 7.503 0 0 0 3.41 11.937l2.812-3.658Q7.737 11 7.5 11a3.5 3.5 0 0 1-3.412-2.716a.5.5 0 0 1-.05-.092z"/><path fill="currentColor" d="M6.215 14.89Q6.842 15 7.5 15a7.5 7.5 0 0 0 7.072-10.005L14.5 5H9.95A3.5 3.5 0 0 1 11 7.5a3.5 3.5 0 0 1-.953 2.405z"/><path fill="currentColor" d="M5 7.5a2.5 2.5 0 1 1 5 0a2.5 2.5 0 0 1-5 0"/></svg></div><!----></div></div><!----> <span style="font-size: 101px; color: rgb(0, 0, 0); text-shadow: rgba(0, 0, 0, 0) 0px 0px 0px; line-height: 1; white-space: nowrap;">Chrome</span></div></foreignObject><rect x="0" y="0" fill="none" stroke="rgba(255, 0, 0, 0.8)" stroke-width="2" class="canvas-border" width="800" height="600" style="display: none;"/><!----><!----></svg>