<svg xmlns="http://www.w3.org/2000/svg" width="800" height="600" viewBox="0 0 800 600" style="max-width: 100%; height: auto; cursor: default;"><defs><pattern id="checkerboard" width="20" height="20" patternUnits="userSpaceOnUse"><rect width="10" height="10" fill="#e0e0e0"/><rect x="10" y="0" width="10" height="10" fill="#ffffff"/><rect x="0" y="10" width="10" height="10" fill="#ffffff"/><rect x="10" y="10" width="10" height="10" fill="#e0e0e0"/></pattern></defs><rect width="100%" height="100%" fill="url(#checkerboard)"/><rect width="100%" height="100%" fill="rgba(255, 255, 255, 1)"/><!----><foreignObject x="0" y="0" width="100%" height="100%" style="pointer-events: none;"><div xmlns="http://www.w3.org/1999/xhtml" style="width: 100%; height: 100%; display: flex; align-items: center; justify-content: center; gap: 9px; font-family: MiSans; font-weight: 400;"><span style="font-size: 55px; color: rgb(0, 0, 0); text-shadow: rgba(0, 0, 0, 0) 0px 0px 0px; line-height: 1; white-space: nowrap;">Python调用</span> <div style="width: 75px; height: 75px; display: flex; align-items: center; justify-content: center; background-color: transparent; backdrop-filter: none; border-radius: 0px;"><div style="max-width: 55px; max-height: 55px; flex-shrink: 0; color: rgb(0, 0, 0); filter: drop-shadow(rgba(0, 0, 0, 0) 0px 0px 0px); display: flex; align-items: center; justify-content: center; border-radius: 0%; overflow: hidden;"><div class="icon-svg-box svelte-oy8cb"><svg xmlns="http://www.w3.org/2000/svg" viewBox="0 0 24 24" width="100%" height="100%" preserveAspectRatio="xMidYMid meet"><g fill="currentColor"><g fill="currentColor" clip-path="url(#SVGXv8lpc2Y)"><path d="M11.914 0C5.82 0 6.2 2.656 6.2 2.656l.007 2.752h5.814v.826H3.9S0 5.789 0 11.969s3.403 5.96 3.403 5.96h2.03v-2.867s-.109-3.42 3.35-3.42h5.766s3.24.052 3.24-3.148V3.202S18.28 0 11.913 0M8.708 1.85c.578 0 1.046.47 1.046 1.052c0 .581-.468 1.051-1.046 1.051s-1.046-.47-1.046-1.051c0-.582.467-1.052 1.046-1.052"/><path d="M12.087 24c6.092 0 5.712-2.656 5.712-2.656l-.007-2.752h-5.814v-.826h8.123s3.9.445 3.9-5.735s-3.404-5.96-3.404-5.96h-2.03v2.867s.109 3.42-3.35 3.42H9.452s-3.24-.052-3.24 3.148v5.292S5.72 24 12.087 24m3.206-1.85c-.579 0-1.046-.47-1.046-1.052c0-.581.467-1.051 1.046-1.051c.578 0 1.046.47 1.046 1.051c0 .582-.468 1.052-1.046 1.052"/></g><defs><clipPath id="SVGXv8lpc2Y"><path fill="currentColor" d="M0 0h24v24H0z"/></clipPath></defs></g></svg></div><!----></div></div><!----> <span style="font-size: 55px; color: rgb(0, 0, 0); text-shadow: rgba(0, 0, 0, 0) 0px 0px 0px; line-height: 1; white-space: nowrap;">Windows Hello</span></div></foreignObject><rect x="0" y="0" fill="none" stroke="rgba(255, 0, 0, 0.8)" stroke-width="2" class="canvas-border" width="800" height="600" style="display: none;"/><!----><!----></svg>