<svg xmlns="http://www.w3.org/2000/svg" width="800" height="600" viewBox="0 0 800 600" style="max-width: 100%; height: auto; cursor: default;"><defs><pattern id="checkerboard" width="20" height="20" patternUnits="userSpaceOnUse"><rect width="10" height="10" fill="#e0e0e0"/><rect x="10" y="0" width="10" height="10" fill="#ffffff"/><rect x="0" y="10" width="10" height="10" fill="#ffffff"/><rect x="10" y="10" width="10" height="10" fill="#e0e0e0"/></pattern></defs><rect width="100%" height="100%" fill="url(#checkerboard)"/><rect width="100%" height="100%" fill="rgba(255, 255, 255, 1)"/><!----><foreignObject x="0" y="0" width="100%" height="100%" style="pointer-events: none;"><div xmlns="http://www.w3.org/1999/xhtml" style="width: 100%; height: 100%; display: flex; align-items: center; justify-content: center; gap: 9px; font-family: MiSans; font-weight: 400;"><span style="font-size: 101px; color: rgb(0, 0, 0); text-shadow: rgba(0, 0, 0, 0) 0px 0px 0px; line-height: 1; white-space: nowrap;">抓包</span> <div style="width: 121px; height: 121px; display: flex; align-items: center; justify-content: center; background-color: transparent; backdrop-filter: none; border-radius: 0px;"><div style="max-width: 101px; max-height: 101px; flex-shrink: 0; color: rgb(0, 0, 0); filter: drop-shadow(rgba(0, 0, 0, 0) 0px 0px 0px); display: flex; align-items: center; justify-content: center; border-radius: 0%; overflow: hidden;"><div class="icon-svg-box svelte-oy8cb"><svg xmlns="http://www.w3.org/2000/svg" viewBox="0 0 24 24" width="100%" height="100%" preserveAspectRatio="xMidYMid meet"><path fill="currentColor" d="M2 9.318c0 3.729 4.02 7.673 6.962 10.06C10.294 20.46 10.96 21 12 21s1.706-.54 3.038-1.621C17.981 16.99 22 13.047 22 9.317c0-6.23-5.5-8.556-10-3.743C7.5.761 2 3.087 2 9.318" opacity=".5"/><path fill="currentColor" fill-rule="evenodd" d="M16.5 6.25a.75.75 0 0 1 .75.75v1.25h1.25a.75.75 0 0 1 0 1.5h-1.25V11a.75.75 0 0 1-1.5 0V9.75H14.5a.75.75 0 0 1 0-1.5h1.25V7a.75.75 0 0 1 .75-.75" clip-rule="evenodd"/></svg></div><!----></div></div><!----> <span style="font-size: 101px; color: rgb(0, 0, 0); text-shadow: rgba(0, 0, 0, 0) 0px 0px 0px; line-height: 1; white-space: nowrap;">vivo健康</span></div></foreignObject><rect x="0" y="0" fill="none" stroke="rgba(255, 0, 0, 0.8)" stroke-width="2" class="canvas-border" width="800" height="600" style="display: none;"/><!----><!----></svg>